{
  "asset": {
    "version": "2.0",
    "generator": "THREE.GLTFExporter r181"
  },
  "scenes": [
    {
      "name": "Scene",
      "nodes": [
        0,
        1,
        2
      ]
    }
  ],
  "scene": 0,
  "nodes": [
    {
      "name": "Model.obj"
    },
    {
      "matrix": [
        0.2,
        0,
        0,
        0,
        0,
        0.2,
        0,
        0,
        0,
        0,
        0.2,
        0,
        0,
        -0.6720325051401275,
        0,
        1
      ],
      "name": "FinalBaseMesh.obj"
    },
    {
      "name": "Dmirtrii.obj",
      "children": [
        3,
        4,
        5,
        6,
        7,
        8,
        9,
        10,
        11
      ]
    },
    {
      "name": "EyeLeft",
      "mesh": 0
    },
    {
      "name": "EyeRight",
      "mesh": 1
    },
    {
      "name": "Wolf3D_Head",
      "mesh": 2
    },
    {
      "name": "Wolf3D_Teeth",
      "mesh": 3
    },
    {
      "name": "Wolf3D_Hair",
      "mesh": 4
    },
    {
      "name": "Wolf3D_Outfit_Top",
      "mesh": 5
    },
    {
      "name": "Wolf3D_Outfit_Bottom",
      "mesh": 6
    },
    {
      "name": "Wolf3D_Outfit_Footwear",
      "mesh": 7
    },
    {
      "name": "Wolf3D_Body",
      "mesh": 8
    }
  ],
  "bufferViews": [
    {
      "buffer": 0,
      "byteOffset": 0,
      "byteLength": 7416,
      "target": 34962,
      "byteStride": 12
    },
    {
      "buffer": 0,
      "byteOffset": 7416,
      "byteLength": 7416,
      "target": 34962,
      "byteStride": 12
    },
    {
      "buffer": 0,
      "byteOffset": 14832,
      "byteLength": 4944,
      "target": 34962,
      "byteStride": 8
    },
    {
      "buffer": 0,
      "byteOffset": 19776,
      "byteLength": 7416,
      "target": 34962,
      "byteStride": 12
    },
    {
      "buffer": 0,
      "byteOffset": 27192,
      "byteLength": 7416,
      "target": 34962,
      "byteStride": 12
    },
    {
      "buffer": 0,
      "byteOffset": 34608,
      "byteLength": 4944,
      "target": 34962,
      "byteStride": 8
    },
    {
      "buffer": 0,
      "byteOffset": 39552,
      "byteLength": 147384,
      "target": 34962,
      "byteStride": 12
    },
    {
      "buffer": 0,
      "byteOffset": 186936,
      "byteLength": 147384,
      "target": 34962,
      "byteStride": 12
    },
    {
      "buffer": 0,
      "byteOffset": 334320,
      "byteLength": 98256,
      "target": 34962,
      "byteStride": 8
    },
    {
      "buffer": 0,
      "byteOffset": 432576,
      "byteLength": 3600,
      "target": 34962,
      "byteStride": 12
    },
    {
      "buffer": 0,
      "byteOffset": 436176,
      "byteLength": 3600,
      "target": 34962,
      "byteStride": 12
    },
    {
      "buffer": 0,
      "byteOffset": 439776,
      "byteLength": 2400,
      "target": 34962,
      "byteStride": 8
    },
    {
      "buffer": 0,
      "byteOffset": 442176,
      "byteLength": 99288,
      "target": 34962,
      "byteStride": 12
    },
    {
      "buffer": 0,
      "byteOffset": 541464,
      "byteLength": 99288,
      "target": 34962,
      "byteStride": 12
    },
    {
      "buffer": 0,
      "byteOffset": 640752,
      "byteLength": 66192,
      "target": 34962,
      "byteStride": 8
    },
    {
      "buffer": 0,
      "byteOffset": 706944,
      "byteLength": 41616,
      "target": 34962,
      "byteStride": 12
    },
    {
      "buffer": 0,
      "byteOffset": 748560,
      "byteLength": 41616,
      "target": 34962,
      "byteStride": 12
    },
    {
      "buffer": 0,
      "byteOffset": 790176,
      "byteLength": 27744,
      "target": 34962,
      "byteStride": 8
    },
    {
      "buffer": 0,
      "byteOffset": 817920,
      "byteLength": 127836,
      "target": 34962,
      "byteStride": 12
    },
    {
      "buffer": 0,
      "byteOffset": 945756,
      "byteLength": 127836,
      "target": 34962,
      "byteStride": 12
    },
    {
      "buffer": 0,
      "byteOffset": 1073592,
      "byteLength": 85224,
      "target": 34962,
      "byteStride": 8
    },
    {
      "buffer": 0,
      "byteOffset": 1158816,
      "byteLength": 47592,
      "target": 34962,
      "byteStride": 12
    },
    {
      "buffer": 0,
      "byteOffset": 1206408,
      "byteLength": 47592,
      "target": 34962,
      "byteStride": 12
    },
    {
      "buffer": 0,
      "byteOffset": 1254000,
      "byteLength": 31728,
      "target": 34962,
      "byteStride": 8
    },
    {
      "buffer": 0,
      "byteOffset": 1285728,
      "byteLength": 209376,
      "target": 34962,
      "byteStride": 12
    },
    {
      "buffer": 0,
      "byteOffset": 1495104,
      "byteLength": 209376,
      "target": 34962,
      "byteStride": 12
    },
    {
      "buffer": 0,
      "byteOffset": 1704480,
      "byteLength": 139584,
      "target": 34962,
      "byteStride": 8
    }
  ],
  "buffers": [
    {
      "byteLength": 1844064,
      "uri": "data:application/octet-stream;base64,"
    }
  ],
  "accessors": [
    {
      "bufferView": 0,
      "componentType": 5126,
      "count": 618,
      "max": [
        0.43499699234962463,
        1.1260240077972412,
        0.13342499732971191
      ],
      "min": [
        0.4046030044555664,
        1.0964900255203247,
        0.1147020012140274
      ],
      "type": "VEC3"
    },
    {
      "bufferView": 1,
      "componentType": 5126,
      "count": 618,
      "max": [
        0.9513999819755554,
        0.9212999939918518,
        0.9937000274658203
      ],
      "min": [
        -0.9345999956130981,
        -0.9979000091552734,
        -0.964900016784668
      ],
      "type": "VEC3"
    },
    {
      "bufferView": 2,
      "componentType": 5126,
      "count": 618,
      "max": [
        0.9646210074424744,
        0.9790089726448059
      ],
      "min": [
        0.01990400068461895,
        0.01819399930536747
      ],
      "type": "VEC2"
    },
    {
      "bufferView": 3,
      "componentType": 5126,
      "count": 618,
      "max": [
        0.38451701402664185,
        1.1257569789886475,
        0.13537000119686127
      ],
      "min": [
        0.3542259931564331,
        1.096155047416687,
        0.11660400032997131
      ],
      "type": "VEC3"
    },
    {
      "bufferView": 4,
      "componentType": 5126,
      "count": 618,
      "max": [
        0.9431999921798706,
        0.9186999797821045,
        0.9952999949455261
      ],
      "min": [
        -0.9363999962806702,
        -0.9926000237464905,
        -0.9649999737739563
      ],
      "type": "VEC3"
    },
    {
      "bufferView": 5,
      "componentType": 5126,
      "count": 618,
      "max": [
        0.9585750102996826,
        0.9772379994392395
      ],
      "min": [
        0.00688599981367588,
        0.03364599868655205
      ],
      "type": "VEC2"
    },
    {
      "bufferView": 6,
      "componentType": 5126,
      "count": 12282,
      "max": [
        0.4716089963912964,
        1.2141460180282593,
        0.1555500030517578
      ],
      "min": [
        0.3118380010128021,
        0.9562280178070068,
        -0.009193000383675098
      ],
      "type": "VEC3"
    },
    {
      "bufferView": 7,
      "componentType": 5126,
      "count": 12282,
      "max": [
        0.9995999932289124,
        0.9980000257492065,
        0.9998999834060669
      ],
      "min": [
        -0.9995999932289124,
        -1,
        -0.9997000098228455
      ],
      "type": "VEC3"
    },
    {
      "bufferView": 8,
      "componentType": 5126,
      "count": 12282,
      "max": [
        0.9943000078201294,
        0.9956499934196472
      ],
      "min": [
        0.004999999888241291,
        0.019300000742077827
      ],
      "type": "VEC2"
    },
    {
      "bufferView": 9,
      "componentType": 5126,
      "count": 300,
      "max": [
        0.41739600896835327,
        1.0738580226898193,
        0.13356100022792816
      ],
      "min": [
        0.3710139989852905,
        1.0399030447006226,
        0.07901199907064438
      ],
      "type": "VEC3"
    },
    {
      "bufferView": 10,
      "componentType": 5126,
      "count": 300,
      "max": [
        0.9987999796867371,
        0.8205999732017517,
        0.98089998960495
      ],
      "min": [
        -0.9940999746322632,
        -0.9955000281333923,
        -0.6269000172615051
      ],
      "type": "VEC3"
    },
    {
      "bufferView": 11,
      "componentType": 5126,
      "count": 300,
      "max": [
        0.9808250069618225,
        0.9717040061950684
      ],
      "min": [
        0.05107000097632408,
        0.016787000000476837
      ],
      "type": "VEC2"
    },
    {
      "bufferView": 12,
      "componentType": 5126,
      "count": 8274,
      "max": [
        0.4761529862880707,
        1.229889988899231,
        0.15932099521160126
      ],
      "min": [
        0.3073349893093109,
        1.049090027809143,
        -0.04429500177502632
      ],
      "type": "VEC3"
    },
    {
      "bufferView": 13,
      "componentType": 5126,
      "count": 8274,
      "max": [
        0.9994000196456909,
        0.9983000159263611,
        0.9976999759674072
      ],
      "min": [
        -0.9993000030517578,
        -0.9986000061035156,
        -0.9990000128746033
      ],
      "type": "VEC3"
    },
    {
      "bufferView": 14,
      "componentType": 5126,
      "count": 8274,
      "max": [
        0.9980469942092896,
        0.9822840094566345
      ],
      "min": [
        0.0019529999699443579,
        0.0019529999699443579
      ],
      "type": "VEC2"
    },
    {
      "bufferView": 15,
      "componentType": 5126,
      "count": 3468,
      "max": [
        0.6000980138778687,
        1.0207589864730835,
        0.3253369927406311
      ],
      "min": [
        0.18226400017738342,
        0.5057610273361206,
        -0.03220200166106224
      ],
      "type": "VEC3"
    },
    {
      "bufferView": 16,
      "componentType": 5126,
      "count": 3468,
      "max": [
        0.9951000213623047,
        0.9868000149726868,
        0.9955000281333923
      ],
      "min": [
        -0.9987000226974487,
        -0.9993000030517578,
        -0.9998000264167786
      ],
      "type": "VEC3"
    },
    {
      "bufferView": 17,
      "componentType": 5126,
      "count": 3468,
      "max": [
        0.9803720116615295,
        0.985880970954895
      ],
      "min": [
        0.016397999599575996,
        0.012563999742269516
      ],
      "type": "VEC2"
    },
    {
      "bufferView": 18,
      "componentType": 5126,
      "count": 10653,
      "max": [
        0.606419026851654,
        0.6557260155677795,
        0.6929529905319214
      ],
      "min": [
        0.1773110032081604,
        0.11928000301122665,
        0.10736799985170364
      ],
      "type": "VEC3"
    },
    {
      "bufferView": 19,
      "componentType": 5126,
      "count": 10653,
      "max": [
        0.9991999864578247,
        0.9995999932289124,
        0.9962999820709229
      ],
      "min": [
        -0.9973999857902527,
        -0.9991999864578247,
        -0.9987000226974487
      ],
      "type": "VEC3"
    },
    {
      "bufferView": 20,
      "componentType": 5126,
      "count": 10653,
      "max": [
        0.9921879768371582,
        0.8533340096473694
      ],
      "min": [
        0.0078119998797774315,
        0.0078119998797774315
      ],
      "type": "VEC2"
    },
    {
      "bufferView": 21,
      "componentType": 5126,
      "count": 3966,
      "max": [
        0.5953810214996338,
        0.1736070066690445,
        0.8373900055885315
      ],
      "min": [
        0.18831700086593628,
        0.023591000586748123,
        0.5619990229606628
      ],
      "type": "VEC3"
    },
    {
      "bufferView": 22,
      "componentType": 5126,
      "count": 3966,
      "max": [
        0.9983999729156494,
        0.9984999895095825,
        0.9980999827384949
      ],
      "min": [
        -0.998199999332428,
        -0.9998999834060669,
        -0.9937000274658203
      ],
      "type": "VEC3"
    },
    {
      "bufferView": 23,
      "componentType": 5126,
      "count": 3966,
      "max": [
        0.9763879776000977,
        0.9876829981803894
      ],
      "min": [
        0.009003999643027782,
        0.013504000380635262
      ],
      "type": "VEC2"
    },
    {
      "bufferView": 24,
      "componentType": 5126,
      "count": 17448,
      "max": [
        0.6192970275878906,
        0.8601719737052917,
        0.6807349920272827
      ],
      "min": [
        0.14166399836540222,
        0.09539200365543365,
        0.10930199921131134
      ],
      "type": "VEC3"
    },
    {
      "bufferView": 25,
      "componentType": 5126,
      "count": 17448,
      "max": [
        0.9998999834060669,
        0.9998000264167786,
        0.9980000257492065
      ],
      "min": [
        -1,
        -0.9987999796867371,
        -0.9939000010490417
      ],
      "type": "VEC3"
    },
    {
      "bufferView": 26,
      "componentType": 5126,
      "count": 17448,
      "max": [
        0.9905530214309692,
        0.8735550045967102
      ],
      "min": [
        0.009566999971866608,
        0.04722600057721138
      ],
      "type": "VEC2"
    }
  ],
  "materials": [
    {
      "pbrMetallicRoughness": {
        "metallicFactor": 0,
        "roughnessFactor": 1
      },
      "name": "Wolf3D_Eye"
    },
    {
      "pbrMetallicRoughness": {
        "metallicFactor": 0,
        "roughnessFactor": 1
      },
      "name": "Wolf3D_Skin"
    },
    {
      "pbrMetallicRoughness": {
        "metallicFactor": 0,
        "roughnessFactor": 1
      },
      "name": "Wolf3D_Teeth"
    },
    {
      "pbrMetallicRoughness": {
        "metallicFactor": 0,
        "roughnessFactor": 1
      },
      "name": "Wolf3D_Hair"
    },
    {
      "pbrMetallicRoughness": {
        "metallicFactor": 0,
        "roughnessFactor": 1
      },
      "name": "Wolf3D_Outfit_Top"
    },
    {
      "pbrMetallicRoughness": {
        "metallicFactor": 0,
        "roughnessFactor": 1
      },
      "name": "Wolf3D_Outfit_Bottom"
    },
    {
      "pbrMetallicRoughness": {
        "metallicFactor": 0,
        "roughnessFactor": 1
      },
      "name": "Wolf3D_Outfit_Footwear"
    },
    {
      "pbrMetallicRoughness": {
        "metallicFactor": 0,
        "roughnessFactor": 1
      },
      "name": "Wolf3D_Body"
    }
  ],
  "meshes": [
    {
      "primitives": [
        {
          "mode": 4,
          "attributes": {
            "POSITION": 0,
            "NORMAL": 1,
            "TEXCOORD_0": 2
          },
          "material": 0
        }
      ]
    },
    {
      "primitives": [
        {
          "mode": 4,
          "attributes": {
            "POSITION": 3,
            "NORMAL": 4,
            "TEXCOORD_0": 5
          },
          "material": 0
        }
      ]
    },
    {
      "primitives": [
        {
          "mode": 4,
          "attributes": {
            "POSITION": 6,
            "NORMAL": 7,
            "TEXCOORD_0": 8
          },
          "material": 1
        }
      ]
    },
    {
      "primitives": [
        {
          "mode": 4,
          "attributes": {
            "POSITION": 9,
            "NORMAL": 10,
            "TEXCOORD_0": 11
          },
          "material": 2
        }
      ]
    },
    {
      "primitives": [
        {
          "mode": 4,
          "attributes": {
            "POSITION": 12,
            "NORMAL": 13,
            "TEXCOORD_0": 14
          },
          "material": 3
        }
      ]
    },
    {
      "primitives": [
        {
          "mode": 4,
          "attributes": {
            "POSITION": 15,
            "NORMAL": 16,
            "TEXCOORD_0": 17
          },
          "material": 4
        }
      ]
    },
    {
      "primitives": [
        {
          "mode": 4,
          "attributes": {
            "POSITION": 18,
            "NORMAL": 19,
            "TEXCOORD_0": 20
          },
          "material": 5
        }
      ]
    },
    {
      "primitives": [
        {
          "mode": 4,
          "attributes": {
            "POSITION": 21,
            "NORMAL": 22,
            "TEXCOORD_0": 23
          },
          "material": 6
        }
      ]
    },
    {
      "primitives": [
        {
          "mode": 4,
          "attributes": {
            "POSITION": 24,
            "NORMAL": 25,
            "TEXCOORD_0": 26
          },
          "material": 7
        }
      ]
    }
  ]
}